<?xml version="1.0" encoding="iso-8859-1"?>
<!-- Generator: Adobe Illustrator 19.0.0, SVG Export Plug-In . SVG Version: 6.00 Build 0)  -->
<svg version="1.1" id="Capa_1" xmlns="http://www.w3.org/2000/svg" xmlns:xlink="http://www.w3.org/1999/xlink" x="0px" y="0px"
	 viewBox="0 0 512 512" style="enable-background:new 0 0 512 512;" xml:space="preserve">
<circle style="fill:#FFBD3D;" cx="302.8" cy="128.77" r="128.77"/>
<path style="fill:#FFCB70;" d="M400.67,128.77c0,3.26-0.16,6.49-0.48,9.66c-0.48,4.98-1.35,9.85-2.56,14.58
	c-1.61,6.32-3.85,12.39-6.63,18.15c-2.15,4.47-4.64,8.75-7.42,12.8c-3.65,5.33-7.81,10.28-12.42,14.77
	c-3.53,3.46-7.31,6.64-11.33,9.53c-5.21,3.75-10.8,7-16.7,9.68c-4.47,2.03-9.11,3.73-13.91,5.07c-6.12,1.73-12.49,2.86-19.03,3.35
	c-2.44,0.19-4.9,0.28-7.39,0.28s-4.95-0.09-7.39-0.28c-6.54-0.49-12.91-1.62-19.03-3.35c-4.8-1.34-9.44-3.04-13.91-5.07
	c-5.9-2.68-11.49-5.93-16.7-9.68c-4.02-2.89-7.8-6.07-11.33-9.53c-4.61-4.49-8.77-9.44-12.42-14.77c-2.79-4.05-5.27-8.33-7.43-12.8
	v-0.01c-2.78-5.75-5.01-11.82-6.62-18.14c-1.21-4.73-2.08-9.6-2.56-14.58c-0.32-3.17-0.48-6.4-0.48-9.66s0.16-6.48,0.48-9.66
	c0.48-4.98,1.35-9.85,2.56-14.58c1.61-6.31,3.84-12.38,6.62-18.14v-0.01c2.16-4.47,4.64-8.74,7.43-12.8
	c3.64-5.32,7.8-10.27,12.41-14.76c3.53-3.46,7.31-6.64,11.33-9.53c5.21-3.75,10.81-7,16.71-9.68c4.47-2.03,9.11-3.73,13.91-5.07
	c6.12-1.73,12.49-2.86,19.03-3.35c2.44-0.19,4.9-0.28,7.39-0.28s4.95,0.09,7.39,0.28c6.54,0.49,12.91,1.62,19.03,3.35
	c4.8,1.34,9.44,3.04,13.91,5.07c5.9,2.68,11.5,5.93,16.71,9.68c4.02,2.89,7.8,6.07,11.33,9.53c4.6,4.49,8.76,9.44,12.41,14.76
	c2.79,4.06,5.27,8.34,7.43,12.81c2.78,5.76,5.01,11.83,6.62,18.14c1.21,4.73,2.08,9.6,2.56,14.58
	C400.51,122.29,400.67,125.51,400.67,128.77z"/>
<circle style="fill:#FFBD3D;" cx="128.77" cy="326.01" r="128.77"/>
<path style="fill:#FFCB70;" d="M226.64,326.01c0,3.26-0.16,6.48-0.48,9.66c-0.48,4.98-1.35,9.85-2.56,14.58
	c-1.61,6.31-3.84,12.38-6.62,18.14c-2.16,4.47-4.64,8.75-7.43,12.81c-3.64,5.32-7.8,10.27-12.41,14.76
	c-3.53,3.46-7.32,6.65-11.34,9.54c-5.2,3.75-10.79,6.99-16.69,9.68c-4.47,2.02-9.12,3.73-13.91,5.07
	c-6.13,1.73-12.49,2.86-19.04,3.35c-2.44,0.19-4.9,0.28-7.39,0.28s-4.95-0.09-7.39-0.28c-6.55-0.49-12.91-1.63-19.04-3.35
	c-4.79-1.34-9.43-3.04-13.9-5.07c-5.9-2.68-11.49-5.93-16.7-9.68c-4.02-2.89-7.81-6.08-11.34-9.54c-4.6-4.49-8.76-9.44-12.41-14.76
	c-2.78-4.06-5.26-8.33-7.42-12.8v-0.01c-2.78-5.76-5.01-11.83-6.62-18.14c-1.21-4.73-2.08-9.6-2.56-14.58
	c-0.32-3.18-0.48-6.4-0.48-9.66s0.16-6.48,0.48-9.66c0.48-4.98,1.35-9.85,2.56-14.58c1.61-6.31,3.84-12.38,6.62-18.14v-0.01
	c2.16-4.47,4.64-8.74,7.42-12.8c3.65-5.32,7.81-10.27,12.41-14.76c3.53-3.46,7.31-6.64,11.33-9.53c5.21-3.75,10.81-7.01,16.71-9.69
	c4.47-2.03,9.11-3.73,13.9-5.07c6.13-1.72,12.49-2.86,19.04-3.35c2.44-0.19,4.9-0.28,7.39-0.28c2.49,0,4.95,0.09,7.39,0.28
	c6.55,0.49,12.91,1.62,19.04,3.35c4.79,1.34,9.44,3.05,13.91,5.07c5.9,2.69,11.49,5.94,16.7,9.69c4.02,2.89,7.8,6.07,11.33,9.53
	c4.61,4.49,8.77,9.44,12.41,14.76c2.79,4.06,5.27,8.34,7.43,12.81c2.78,5.76,5.01,11.83,6.62,18.14c1.21,4.73,2.08,9.6,2.56,14.58
	C226.48,319.53,226.64,322.75,226.64,326.01z"/>
<circle style="fill:#FFBD3D;" cx="383.23" cy="383.23" r="128.77"/>
<path style="fill:#FFCB70;" d="M481.09,383.23c0,3.26-0.16,6.48-0.48,9.66c-0.48,4.98-1.35,9.84-2.56,14.57
	c-1.61,6.32-3.84,12.39-6.62,18.15v0.01l-7.42,12.8c-3.65,5.32-7.81,10.27-12.41,14.76c-3.53,3.46-7.32,6.65-11.34,9.54
	c-5.21,3.75-10.81,7-16.71,9.67c-4.46,2.03-9.1,3.73-13.89,5.07c-6.13,1.73-12.49,2.86-19.04,3.35c-2.44,0.19-4.9,0.28-7.39,0.28
	s-4.95-0.09-7.39-0.28c-6.55-0.49-12.91-1.62-19.04-3.35c-4.79-1.34-9.44-3.04-13.9-5.07c-5.9-2.68-11.49-5.92-16.7-9.67
	c-4.02-2.89-7.81-6.08-11.34-9.54c-4.61-4.49-8.77-9.44-12.41-14.76c-2.79-4.06-5.27-8.34-7.43-12.81
	c-2.78-5.76-5.01-11.83-6.62-18.15c-1.21-4.73-2.08-9.59-2.56-14.57c-0.32-3.18-0.48-6.4-0.48-9.66s0.16-6.49,0.48-9.66
	c0.48-4.98,1.35-9.85,2.56-14.58c1.61-6.32,3.84-12.39,6.62-18.14c2.16-4.47,4.64-8.75,7.43-12.81c3.65-5.33,7.81-10.28,12.42-14.77
	c3.52-3.45,7.31-6.64,11.32-9.52c5.21-3.75,10.8-7,16.7-9.69c4.47-2.02,9.12-3.73,13.91-5.07c6.13-1.73,12.49-2.86,19.04-3.35
	c2.44-0.19,4.9-0.28,7.39-0.28s4.95,0.09,7.39,0.28c6.54,0.49,12.91,1.62,19.03,3.35c4.8,1.34,9.44,3.04,13.91,5.07
	c5.9,2.68,11.49,5.93,16.7,9.68c4.02,2.89,7.8,6.07,11.33,9.53c4.6,4.49,8.77,9.44,12.42,14.77c2.78,4.05,5.26,8.33,7.42,12.8v0.01
	c2.78,5.75,5.01,11.82,6.62,18.14c1.21,4.729,2.08,9.6,2.56,14.58C480.93,376.74,481.09,379.97,481.09,383.23z"/>
<g>
	<path style="fill:#FE9400;" d="M331.868,109.185v-0.116c0-12.313-8.261-22.728-19.53-26.008v-3.482c0-4.143-3.357-7.5-7.5-7.5
		s-7.5,3.357-7.5,7.5v2.401h-4.53v-2.401c0-4.143-3.357-7.5-7.5-7.5s-7.5,3.357-7.5,7.5v2.401h-2.634c-4.143,0-7.5,3.357-7.5,7.5
		s3.357,7.5,7.5,7.5h2.634v31.793v31.793h-2.634c-4.143,0-7.5,3.357-7.5,7.5s3.357,7.5,7.5,7.5h2.634v2.402
		c0,4.143,3.357,7.5,7.5,7.5s7.5-3.357,7.5-7.5v-2.402h4.53v2.402c0,4.143,3.357,7.5,7.5,7.5s7.5-3.357,7.5-7.5v-3.483
		c11.269-3.281,19.53-13.695,19.53-26.008v-0.115c0-7.699-3.234-14.652-8.407-19.589
		C328.635,123.836,331.868,116.883,331.868,109.185z M316.868,148.361v0.115c0,6.666-5.423,12.089-12.088,12.089h-11.973v-24.293
		h11.973C311.445,136.272,316.868,141.695,316.868,148.361z M292.808,121.272V96.979h11.973c6.665,0,12.088,5.423,12.088,12.089
		v0.116c0,6.665-5.423,12.088-12.088,12.088L292.808,121.272L292.808,121.272z"/>
	<path style="fill:#FE9400;" d="M310.3,32.41v6.99c0,4.14-3.36,7.5-7.5,7.5s-7.5-3.36-7.5-7.5v-6.99c0-0.42,0.03-0.82,0.11-1.22
		c2.44-0.19,4.9-0.28,7.39-0.28s4.95,0.09,7.39,0.28C310.27,31.59,310.3,31.99,310.3,32.41z"/>
	<path style="fill:#FE9400;" d="M310.3,218.15v6.99c0,0.42-0.03,0.82-0.11,1.22c-2.44,0.19-4.9,0.28-7.39,0.28s-4.95-0.09-7.39-0.28
		c-0.08-0.4-0.11-0.8-0.11-1.22v-6.99c0-4.15,3.36-7.5,7.5-7.5S310.3,214,310.3,218.15z"/>
	<path style="fill:#FE9400;" d="M274.8,51.84c-0.85,0.3-1.72,0.45-2.57,0.45c-3.06,0-5.94-1.89-7.05-4.94l-2.39-6.57
		c-0.14-0.39-0.25-0.78-0.32-1.17c4.47-2.03,9.11-3.73,13.91-5.07c0.2,0.35,0.37,0.72,0.51,1.11l2.39,6.57
		C280.7,46.12,278.69,50.42,274.8,51.84z"/>
	<path style="fill:#FE9400;" d="M343.13,217.94c-4.47,2.03-9.11,3.73-13.91,5.07c-0.2-0.35-0.37-0.73-0.51-1.12l-2.39-6.57
		c-1.42-3.89,0.59-8.19,4.48-9.61c3.9-1.42,8.2,0.59,9.62,4.48l2.39,6.57C342.95,217.15,343.06,217.55,343.13,217.94z"/>
	<path style="fill:#FE9400;" d="M250.17,66.05c-1.4,1.18-3.11,1.76-4.82,1.76c-2.14,0-4.26-0.91-5.75-2.68l-4.49-5.36
		c-0.26-0.3-0.48-0.62-0.68-0.95c3.53-3.46,7.31-6.64,11.33-9.53c0.3,0.24,0.58,0.53,0.84,0.84l4.5,5.36
		C253.76,58.66,253.34,63.39,250.17,66.05z"/>
	<path style="fill:#FE9400;" d="M371.16,198.73c-3.53,3.46-7.31,6.64-11.33,9.53c-0.3-0.26-0.57-0.54-0.83-0.85l-4.5-5.35
		c-2.66-3.18-2.25-7.91,0.93-10.57c3.17-2.66,7.9-2.25,10.56,0.93l4.5,5.35C370.75,198.08,370.97,198.4,371.16,198.73z"/>
	<path style="fill:#FE9400;" d="M231.89,87.84c-1.39,2.4-3.91,3.75-6.5,3.75c-1.27,0-2.56-0.33-3.74-1.01l-6.06-3.5
		c-0.36-0.21-0.69-0.44-1-0.69v-0.01c2.16-4.47,4.64-8.74,7.43-12.8c0.36,0.14,0.72,0.31,1.07,0.51l6.06,3.5
		C232.74,79.66,233.96,84.25,231.89,87.84z"/>
	<path style="fill:#FE9400;" d="M391,171.16c-2.15,4.47-4.64,8.75-7.42,12.8c-0.37-0.14-0.73-0.31-1.08-0.51l-6.05-3.49
		c-3.59-2.08-4.82-6.66-2.75-10.25s6.66-4.82,10.25-2.75l6.05,3.5C390.36,170.67,390.69,170.9,391,171.16z"/>
	<path style="fill:#FE9400;" d="M222.17,114.55c-0.64,3.64-3.81,6.2-7.38,6.2c-0.43,0-0.87-0.03-1.31-0.11l-6.89-1.22
		c-0.41-0.07-0.8-0.17-1.18-0.31c0.48-4.98,1.35-9.85,2.56-14.58c0.4,0.01,0.82,0.04,1.23,0.12l6.88,1.22
		C220.16,106.59,222.89,110.48,222.17,114.55z"/>
	<path style="fill:#FE9400;" d="M400.19,138.43c-0.48,4.98-1.35,9.85-2.56,14.58c-0.4-0.01-0.82-0.04-1.23-0.12l-6.89-1.21
		c-4.08-0.72-6.8-4.61-6.08-8.69s4.61-6.81,8.69-6.08l6.88,1.21C399.41,138.19,399.81,138.3,400.19,138.43z"/>
	<path style="fill:#FE9400;" d="M216.09,151.68l-6.89,1.21c-0.41,0.08-0.83,0.11-1.23,0.12c-1.21-4.73-2.08-9.6-2.56-14.58
		c0.38-0.13,0.77-0.24,1.18-0.31l6.89-1.21c4.08-0.73,7.97,2,8.69,6.08C222.89,147.07,220.16,150.96,216.09,151.68z"/>
	<path style="fill:#FE9400;" d="M400.19,119.11c-0.38,0.13-0.78,0.24-1.19,0.31l-6.88,1.22c-0.44,0.08-0.88,0.11-1.31,0.11
		c-3.57,0-6.74-2.56-7.38-6.2c-0.72-4.07,2-7.96,6.08-8.68l6.89-1.22c0.41-0.08,0.83-0.11,1.23-0.12
		C398.84,109.26,399.71,114.13,400.19,119.11z"/>
	<path style="fill:#FE9400;" d="M229.15,179.96l-6.06,3.49c-0.35,0.2-0.71,0.37-1.07,0.51c-2.79-4.05-5.27-8.33-7.43-12.8v-0.01
		c0.31-0.25,0.64-0.48,1-0.69l6.06-3.5c3.58-2.06,8.17-0.84,10.24,2.75S232.74,177.88,229.15,179.96z"/>
	<path style="fill:#FE9400;" d="M391.01,86.39c-0.31,0.25-0.64,0.48-1,0.69l-6.06,3.5c-1.18,0.68-2.47,1.01-3.74,1.01
		c-2.6,0-5.12-1.35-6.51-3.75c-2.07-3.59-0.84-8.18,2.75-10.25l6.05-3.5c0.35-0.2,0.71-0.37,1.08-0.51
		C386.37,77.64,388.85,81.92,391.01,86.39z"/>
	<path style="fill:#FE9400;" d="M251.1,202.06l-4.5,5.36c-0.26,0.31-0.53,0.59-0.83,0.84c-4.02-2.89-7.8-6.07-11.33-9.53
		c0.19-0.33,0.41-0.65,0.67-0.96l4.49-5.35c2.67-3.18,7.4-3.59,10.57-0.93C253.34,194.15,253.76,198.88,251.1,202.06z"/>
	<path style="fill:#FE9400;" d="M371.17,58.82c-0.2,0.33-0.42,0.65-0.68,0.95l-4.5,5.36c-1.48,1.77-3.61,2.68-5.75,2.68
		c-1.7,0-3.41-0.58-4.81-1.76c-3.18-2.66-3.59-7.39-0.93-10.56l4.5-5.36c0.26-0.31,0.54-0.6,0.84-0.84
		C363.86,52.18,367.64,55.36,371.17,58.82z"/>
	<path style="fill:#FE9400;" d="M279.28,215.32l-2.39,6.57c-0.14,0.39-0.31,0.77-0.51,1.12c-4.8-1.34-9.44-3.04-13.91-5.07
		c0.07-0.39,0.18-0.79,0.32-1.18l2.39-6.57c1.42-3.89,5.72-5.9,9.62-4.48C278.69,207.13,280.7,211.43,279.28,215.32z"/>
	<path style="fill:#FE9400;" d="M343.13,39.61c-0.07,0.39-0.18,0.79-0.32,1.17l-2.39,6.57c-1.11,3.05-3.99,4.94-7.05,4.94
		c-0.86,0-1.72-0.15-2.57-0.45c-3.89-1.42-5.9-5.72-4.48-9.62l2.39-6.57c0.14-0.39,0.31-0.76,0.51-1.11
		C334.02,35.88,338.66,37.58,343.13,39.61z"/>
	<path style="fill:#FE9400;" d="M136.27,229.64v7c0,4.14-3.36,7.5-7.5,7.5s-7.5-3.36-7.5-7.5v-7c0-0.42,0.03-0.82,0.11-1.22
		c2.44-0.19,4.9-0.28,7.39-0.28c2.49,0,4.95,0.09,7.39,0.28C136.24,228.82,136.27,229.22,136.27,229.64z"/>
	<path style="fill:#FE9400;" d="M136.27,415.38v7c0,0.42-0.03,0.82-0.11,1.22c-2.44,0.19-4.9,0.28-7.39,0.28s-4.95-0.09-7.39-0.28
		c-0.08-0.4-0.11-0.8-0.11-1.22v-7c0-4.14,3.36-7.5,7.5-7.5S136.27,411.24,136.27,415.38z"/>
	<path style="fill:#FE9400;" d="M100.77,249.07c-0.85,0.31-1.71,0.46-2.56,0.46c-3.07,0-5.94-1.89-7.05-4.94l-2.39-6.57
		c-0.14-0.39-0.25-0.79-0.33-1.18c4.47-2.03,9.11-3.73,13.9-5.07c0.2,0.36,0.38,0.73,0.52,1.12l2.39,6.57
		C106.67,243.35,104.66,247.66,100.77,249.07z"/>
	<path style="fill:#FE9400;" d="M169.11,415.18c-4.47,2.02-9.12,3.73-13.91,5.07c-0.2-0.35-0.38-0.73-0.52-1.12l-2.39-6.57
		c-1.41-3.89,0.59-8.2,4.49-9.61c3.89-1.42,8.19,0.59,9.61,4.48l2.39,6.57C168.92,414.39,169.03,414.79,169.11,415.18z"/>
	<path style="fill:#FE9400;" d="M76.14,263.29c-1.4,1.18-3.11,1.75-4.81,1.75c-2.14,0-4.27-0.91-5.75-2.67l-4.5-5.36
		c-0.26-0.3-0.48-0.62-0.68-0.95c3.53-3.46,7.31-6.64,11.33-9.53c0.3,0.24,0.58,0.53,0.84,0.84l4.5,5.35
		C79.73,255.9,79.32,260.63,76.14,263.29z"/>
	<path style="fill:#FE9400;" d="M197.14,395.96c-3.53,3.46-7.32,6.65-11.34,9.54c-0.3-0.26-0.57-0.54-0.83-0.85l-4.49-5.35
		c-2.67-3.18-2.25-7.91,0.92-10.57s7.9-2.25,10.57,0.92l4.49,5.36C196.72,395.31,196.94,395.63,197.14,395.96z"/>
	<path style="fill:#FE9400;" d="M57.87,285.07c-1.39,2.41-3.91,3.75-6.5,3.75c-1.28,0-2.57-0.32-3.75-1l-6.05-3.5
		c-0.36-0.21-0.69-0.44-1-0.69v-0.01c2.16-4.47,4.64-8.74,7.42-12.8c0.37,0.14,0.73,0.31,1.08,0.51l6.05,3.5
		C58.71,276.9,59.94,281.49,57.87,285.07z"/>
	<path style="fill:#FE9400;" d="M216.98,368.39c-2.16,4.47-4.64,8.75-7.43,12.81c-0.36-0.14-0.72-0.31-1.07-0.51l-6.06-3.5
		c-3.58-2.07-4.81-6.65-2.74-10.24c2.07-3.59,6.66-4.82,10.24-2.75l6.06,3.5C216.34,367.91,216.67,368.14,216.98,368.39z"/>
	<path style="fill:#FE9400;" d="M48.14,311.79c-0.64,3.64-3.8,6.2-7.38,6.2c-0.43,0-0.87-0.04-1.31-0.11l-6.88-1.22
		c-0.41-0.07-0.8-0.18-1.18-0.31c0.48-4.98,1.35-9.85,2.56-14.58c0.4,0.01,0.81,0.05,1.22,0.12l6.89,1.21
		C46.14,303.82,48.86,307.71,48.14,311.79z"/>
	<path style="fill:#FE9400;" d="M226.16,335.67c-0.48,4.98-1.35,9.85-2.56,14.58c-0.4-0.01-0.82-0.04-1.23-0.12l-6.88-1.21
		c-4.08-0.72-6.81-4.61-6.09-8.69c0.72-4.08,4.61-6.81,8.69-6.09l6.89,1.22C225.39,335.43,225.78,335.54,226.16,335.67z"/>
	<path style="fill:#FE9400;" d="M42.06,348.92l-6.89,1.21c-0.41,0.07-0.82,0.11-1.22,0.12c-1.21-4.73-2.08-9.6-2.56-14.58
		c0.38-0.13,0.77-0.24,1.18-0.31l6.88-1.22c4.08-0.72,7.97,2.01,8.69,6.09C48.86,344.31,46.14,348.2,42.06,348.92z"/>
	<path style="fill:#FE9400;" d="M226.16,316.35c-0.38,0.13-0.77,0.24-1.18,0.31l-6.89,1.22c-0.44,0.07-0.88,0.11-1.31,0.11
		c-3.57,0-6.74-2.56-7.38-6.2c-0.72-4.08,2.01-7.97,6.09-8.69l6.88-1.21c0.41-0.08,0.83-0.11,1.23-0.12
		C224.81,306.5,225.68,311.37,226.16,316.35z"/>
	<path style="fill:#FE9400;" d="M55.12,377.19l-6.05,3.5c-0.35,0.2-0.71,0.37-1.08,0.51c-2.78-4.06-5.26-8.33-7.42-12.8v-0.01
		c0.31-0.25,0.64-0.48,1-0.69l6.05-3.5c3.59-2.07,8.18-0.84,10.25,2.75C59.94,370.53,58.71,375.12,55.12,377.19z"/>
	<path style="fill:#FE9400;" d="M216.98,283.63c-0.31,0.25-0.64,0.48-1,0.69l-6.06,3.5c-1.18,0.68-2.47,1-3.74,1
		c-2.59,0-5.11-1.34-6.5-3.75c-2.07-3.58-0.84-8.17,2.74-10.24l6.06-3.5c0.35-0.2,0.71-0.37,1.07-0.51
		C212.34,274.88,214.82,279.16,216.98,283.63z"/>
	<path style="fill:#FE9400;" d="M77.07,399.3l-4.5,5.35c-0.26,0.31-0.53,0.59-0.83,0.85c-4.02-2.89-7.81-6.08-11.34-9.54
		c0.2-0.33,0.42-0.65,0.68-0.95l4.5-5.36c2.66-3.17,7.39-3.59,10.56-0.92C79.32,391.39,79.73,396.12,77.07,399.3z"/>
	<path style="fill:#FE9400;" d="M197.14,256.06c-0.2,0.33-0.42,0.65-0.68,0.95l-4.49,5.36c-1.49,1.76-3.61,2.67-5.75,2.67
		c-1.7,0-3.41-0.57-4.82-1.75c-3.17-2.66-3.59-7.39-0.92-10.57l4.49-5.35c0.26-0.31,0.54-0.6,0.84-0.84
		C189.83,249.42,193.61,252.6,197.14,256.06z"/>
	<path style="fill:#FE9400;" d="M105.25,412.56l-2.39,6.57c-0.14,0.39-0.32,0.77-0.52,1.12c-4.79-1.34-9.43-3.04-13.9-5.07
		c0.08-0.39,0.19-0.79,0.33-1.18l2.39-6.57c1.41-3.89,5.72-5.9,9.61-4.48C104.66,404.36,106.67,408.67,105.25,412.56z"/>
	<path style="fill:#FE9400;" d="M169.11,236.84c-0.08,0.39-0.19,0.79-0.33,1.18l-2.39,6.57c-1.11,3.05-3.99,4.94-7.05,4.94
		c-0.85,0-1.72-0.15-2.57-0.46c-3.89-1.41-5.89-5.72-4.48-9.61l2.39-6.57c0.14-0.39,0.32-0.76,0.52-1.12
		C159.99,233.11,164.64,234.82,169.11,236.84z"/>
	<path style="fill:#FE9400;" d="M390.73,286.86v6.99c0,4.15-3.36,7.5-7.5,7.5c-4.15,0-7.5-3.35-7.5-7.5v-6.99
		c0-0.42,0.03-0.82,0.11-1.22c2.44-0.19,4.9-0.28,7.39-0.28s4.95,0.09,7.39,0.28C390.7,286.04,390.73,286.44,390.73,286.86z"/>
	<path style="fill:#FE9400;" d="M390.73,472.6v6.99c0,0.42-0.03,0.82-0.11,1.22c-2.44,0.19-4.9,0.28-7.39,0.28s-4.95-0.09-7.39-0.28
		c-0.08-0.4-0.11-0.8-0.11-1.22v-6.99c0-4.14,3.35-7.5,7.5-7.5C387.37,465.1,390.73,468.46,390.73,472.6z"/>
	<path style="fill:#FE9400;" d="M355.22,306.29c-0.84,0.31-1.71,0.46-2.56,0.46c-3.06,0-5.94-1.9-7.05-4.94l-2.39-6.57
		c-0.14-0.39-0.25-0.79-0.33-1.18c4.47-2.02,9.12-3.73,13.91-5.07c0.2,0.35,0.38,0.729,0.52,1.12l2.39,6.57
		C361.12,300.57,359.12,304.87,355.22,306.29z"/>
	<path style="fill:#FE9400;" d="M423.55,472.39c-4.46,2.03-9.1,3.73-13.89,5.07c-0.2-0.35-0.38-0.72-0.52-1.11l-2.39-6.57
		c-1.42-3.9,0.59-8.2,4.48-9.62c3.89-1.41,8.2,0.59,9.61,4.49l2.39,6.57C423.37,471.61,423.48,472,423.55,472.39z"/>
	<path style="fill:#FE9400;" d="M330.6,320.51c-1.41,1.18-3.12,1.75-4.82,1.75c-2.14,0-4.26-0.91-5.75-2.68l-4.49-5.35
		c-0.26-0.31-0.48-0.63-0.67-0.96c3.52-3.45,7.31-6.64,11.32-9.52c0.3,0.24,0.58,0.53,0.84,0.84l4.49,5.35
		C334.19,313.12,333.77,317.85,330.6,320.51z"/>
	<path style="fill:#FE9400;" d="M451.6,453.18c-3.53,3.46-7.32,6.65-11.34,9.54c-0.3-0.26-0.57-0.54-0.83-0.85l-4.5-5.36
		c-2.66-3.17-2.25-7.9,0.92-10.56c3.18-2.66,7.91-2.25,10.57,0.92l4.5,5.36C451.18,452.53,451.4,452.85,451.6,453.18z"/>
	<path style="fill:#FE9400;" d="M312.32,342.29c-1.39,2.41-3.91,3.75-6.5,3.75c-1.27,0-2.56-0.32-3.74-1l-6.06-3.5
		c-0.36-0.21-0.69-0.44-1-0.69c2.16-4.47,4.64-8.75,7.43-12.81c0.36,0.14,0.72,0.31,1.07,0.51l6.06,3.49
		C313.16,334.12,314.39,338.7,312.32,342.29z"/>
	<path style="fill:#FE9400;" d="M471.43,425.61v0.01l-7.42,12.8c-0.37-0.14-0.73-0.31-1.08-0.51l-6.05-3.5
		c-3.59-2.07-4.82-6.66-2.75-10.25c2.07-3.58,6.66-4.81,10.25-2.74l6.05,3.5C470.79,425.13,471.12,425.36,471.43,425.61z"/>
	<path style="fill:#FE9400;" d="M302.6,369.01c-0.64,3.64-3.81,6.2-7.38,6.2c-0.43,0-0.87-0.04-1.31-0.12l-6.89-1.21
		c-0.41-0.07-0.8-0.18-1.18-0.31c0.48-4.98,1.35-9.85,2.56-14.58c0.4,0.01,0.81,0.05,1.23,0.12l6.88,1.21
		C300.59,361.04,303.32,364.93,302.6,369.01z"/>
	<path style="fill:#FE9400;" d="M480.61,392.89c-0.48,4.98-1.35,9.84-2.56,14.57c-0.4-0.01-0.81-0.04-1.22-0.11l-6.89-1.22
		c-4.08-0.72-6.8-4.61-6.08-8.68c0.72-4.08,4.61-6.81,8.69-6.09l6.88,1.22C479.84,392.65,480.23,392.75,480.61,392.89z"/>
	<path style="fill:#FE9400;" d="M296.51,406.13l-6.88,1.22c-0.41,0.07-0.83,0.1-1.23,0.11c-1.21-4.73-2.08-9.59-2.56-14.57
		c0.38-0.14,0.77-0.24,1.18-0.31l6.89-1.22c4.08-0.72,7.97,2.01,8.69,6.09C303.32,401.52,300.59,405.41,296.51,406.13z"/>
	<path style="fill:#FE9400;" d="M480.61,373.57c-0.38,0.13-0.77,0.24-1.18,0.31l-6.88,1.21c-0.44,0.08-0.88,0.12-1.31,0.12
		c-3.58,0-6.74-2.56-7.38-6.2c-0.72-4.08,2-7.97,6.08-8.69l6.89-1.21c0.41-0.07,0.82-0.11,1.22-0.12
		C479.26,363.72,480.13,368.59,480.61,373.57z"/>
	<path style="fill:#FE9400;" d="M309.58,434.41l-6.06,3.5c-0.35,0.2-0.71,0.37-1.07,0.51c-2.79-4.06-5.27-8.34-7.43-12.81
		c0.31-0.25,0.64-0.48,1-0.69l6.06-3.5c3.59-2.07,8.17-0.84,10.24,2.74C314.39,427.75,313.17,432.34,309.58,434.41z"/>
	<path style="fill:#FE9400;" d="M471.43,340.84v0.01c-0.31,0.25-0.64,0.48-1,0.69l-6.05,3.5c-1.18,0.68-2.47,1-3.75,1
		c-2.59,0-5.11-1.34-6.5-3.75c-2.07-3.59-0.84-8.17,2.75-10.25l6.05-3.49c0.35-0.2,0.71-0.37,1.08-0.51
		C466.79,332.09,469.27,336.37,471.43,340.84z"/>
	<path style="fill:#FE9400;" d="M331.52,456.51l-4.49,5.36c-0.26,0.31-0.53,0.59-0.83,0.85c-4.02-2.89-7.81-6.08-11.34-9.54
		c0.2-0.33,0.42-0.65,0.68-0.95l4.49-5.36c2.66-3.17,7.39-3.59,10.57-0.92C333.77,448.61,334.19,453.34,331.52,456.51z"/>
	<path style="fill:#FE9400;" d="M451.59,313.27c-0.19,0.33-0.41,0.65-0.67,0.96l-4.5,5.35c-1.48,1.77-3.61,2.68-5.75,2.68
		c-1.7,0-3.41-0.57-4.82-1.75c-3.17-2.67-3.58-7.4-0.92-10.57l4.5-5.36c0.26-0.31,0.53-0.59,0.83-0.84
		C444.28,306.63,448.06,309.81,451.59,313.27z"/>
	<path style="fill:#FE9400;" d="M359.71,469.78l-2.39,6.57c-0.14,0.39-0.32,0.76-0.52,1.11c-4.79-1.34-9.44-3.04-13.9-5.07
		c0.07-0.39,0.18-0.78,0.32-1.17l2.39-6.57c1.42-3.9,5.72-5.9,9.61-4.49C359.12,461.58,361.12,465.88,359.71,469.78z"/>
	<path style="fill:#FE9400;" d="M423.56,294.06c-0.08,0.39-0.19,0.79-0.33,1.18l-2.39,6.57c-1.11,3.04-3.98,4.94-7.05,4.94
		c-0.85,0-1.71-0.15-2.56-0.46c-3.89-1.42-5.9-5.72-4.48-9.61l2.39-6.57c0.14-0.39,0.31-0.77,0.51-1.12
		C414.45,290.33,419.09,292.03,423.56,294.06z"/>
	<path style="fill:#FE9400;" d="M413.51,411.139h-32.2v-22.464c2.696-0.667,5.709-1.407,9.08-2.227
		c4.025-0.979,6.495-5.034,5.517-9.06c-0.979-4.024-5.033-6.497-9.06-5.517c-1.965,0.478-3.803,0.927-5.537,1.353v-31.696
		c0-4.143-3.357-7.5-7.5-7.5s-7.5,3.357-7.5,7.5v35.453c-6.777,1.741-9.249,2.459-9.414,2.508c-3.975,1.162-6.252,5.325-5.092,9.3
		c0.955,3.273,3.949,5.399,7.197,5.399c0.694,0,1.401-0.098,2.102-0.302c0.03-0.009,1.49-0.431,5.207-1.407v26.158
		c0,4.143,3.357,7.5,7.5,7.5h39.7c4.143,0,7.5-3.357,7.5-7.5S417.652,411.139,413.51,411.139z"/>
	<path style="fill:#FE9400;" d="M159.03,325.936l-29.688-7.352c-0.374-0.093-0.765-0.093-1.14,0l-29.688,7.352
		c-2.068,0.512-3.71-1.752-2.579-3.559l30.827-49.249c0.929-1.484,3.09-1.484,4.019,0l30.827,49.249
		C162.74,324.184,161.099,326.449,159.03,325.936z"/>
	<path style="fill:#FE9400;" d="M101.443,336.234l26.403-11.787c0.589-0.263,1.263-0.263,1.852,0l26.403,11.787
		c1.403,0.626,1.793,2.435,0.772,3.584l-26.403,29.704c-0.904,1.017-2.492,1.017-3.396,0l-26.403-29.704
		C99.651,338.669,100.04,336.86,101.443,336.234z"/>
</g>
<g>
</g>
<g>
</g>
<g>
</g>
<g>
</g>
<g>
</g>
<g>
</g>
<g>
</g>
<g>
</g>
<g>
</g>
<g>
</g>
<g>
</g>
<g>
</g>
<g>
</g>
<g>
</g>
<g>
</g>
</svg>
